<svg width="24" height="24" viewBox="0 0 24 24" fill="none" xmlns="http://www.w3.org/2000/svg">
<path fill-rule="evenodd" clip-rule="evenodd" d="M2.8125 10.4996C2.8125 4.91644 4.15562 2.62463 12 2.62463C19.8443 2.62463 21.1875 4.87781 21.1875 10.4996C21.1875 12.9506 20.9338 14.7614 19.9969 16.0242C20.275 17.1845 20.5921 18.5079 20.8291 19.4972C20.8966 19.7762 20.799 20.0687 20.577 20.2517C20.355 20.4332 20.049 20.4737 19.788 20.3537C18.5141 19.7711 16.6104 18.9001 15.1193 18.2178C14.2153 18.3236 13.1814 18.3746 12 18.3746C4.14687 18.3746 2.8125 16.0828 2.8125 10.4996Z" fill="#1ABCB7"/>
<path d="M11.9011 15.6752C12.481 15.6752 12.9511 15.2051 12.9511 14.6252C12.9511 14.0453 12.481 13.5752 11.9011 13.5752C11.3212 13.5752 10.8511 14.0453 10.8511 14.6252C10.8511 15.2051 11.3212 15.6752 11.9011 15.6752Z" fill="white"/>
<path fill-rule="evenodd" clip-rule="evenodd" d="M11.1302 11.9115C11.1302 9.93862 13.7434 9.77458 13.7434 8.29379C13.7434 7.47434 12.9629 6.80928 12.0013 6.80928C11.0396 6.80928 10.2592 7.47434 10.2592 8.29379C10.2592 8.70351 9.86895 9.03604 9.38813 9.03604C8.51448 9.03604 8.51709 8.28414 8.51709 8.28414C8.52319 6.64969 10.0824 5.32477 12.0013 5.32477C13.9245 5.32477 15.4854 6.65489 15.4854 8.29379C15.4854 10.4545 12.8723 10.8152 12.8723 12.0051V12.0823C12.8723 12.492 12.4821 12.8245 12.0013 12.8245C11.5204 12.8245 11.1302 12.492 11.1302 12.0823V11.9115Z" fill="white"/>
</svg>
